<mxfile host="Electron" modified="2024-03-25T23:00:01.823Z" agent="Mozilla/5.0 (Macintosh; Intel Mac OS X 10_15_7) AppleWebKit/537.36 (KHTML, like Gecko) draw.io/24.1.0 Chrome/120.0.6099.109 Electron/28.1.0 Safari/537.36" etag="Vpm6Dxgvj8CbIErZj6q_" version="24.1.0" type="device" pages="2">
  <diagram name="Handle Trans Theory" id="MbixYG6zQN9dIMxDy9kz">
    <mxGraphModel dx="2257" dy="2382" grid="1" gridSize="10" guides="1" tooltips="1" connect="1" arrows="1" fold="1" page="1" pageScale="1" pageWidth="850" pageHeight="1100" math="0" shadow="0">
      <root>
        <mxCell id="0" />
        <mxCell id="1" parent="0" />
        <mxCell id="0RKBG-0MUI1VxRcxzeNU-2" value="" style="outlineConnect=0;dashed=0;verticalLabelPosition=bottom;verticalAlign=top;align=center;html=1;shape=mxgraph.aws3.classic_load_balancer;fillColor=#F58536;gradientColor=none;" vertex="1" parent="1">
          <mxGeometry x="710" y="409.75" width="69" height="72" as="geometry" />
        </mxCell>
        <mxCell id="0RKBG-0MUI1VxRcxzeNU-3" value="" style="outlineConnect=0;dashed=0;verticalLabelPosition=bottom;verticalAlign=top;align=center;html=1;shape=mxgraph.aws3.vpn_gateway;fillColor=#F58536;gradientColor=none;" vertex="1" parent="1">
          <mxGeometry x="215.5" y="239.75" width="69" height="72" as="geometry" />
        </mxCell>
        <mxCell id="0RKBG-0MUI1VxRcxzeNU-4" value="" style="outlineConnect=0;dashed=0;verticalLabelPosition=bottom;verticalAlign=top;align=center;html=1;shape=mxgraph.aws3.hosted_zone;fillColor=#F58536;gradientColor=none;" vertex="1" parent="1">
          <mxGeometry x="505.5" y="239.75" width="63" height="64.5" as="geometry" />
        </mxCell>
        <mxCell id="0RKBG-0MUI1VxRcxzeNU-5" value="" style="image;sketch=0;aspect=fixed;html=1;points=[];align=center;fontSize=12;image=img/lib/mscae/Cache_Redis_Product.svg;" vertex="1" parent="1">
          <mxGeometry x="750" y="107.75" width="50" height="42" as="geometry" />
        </mxCell>
        <mxCell id="0RKBG-0MUI1VxRcxzeNU-7" value="" style="image;sketch=0;aspect=fixed;html=1;points=[];align=center;fontSize=12;image=img/lib/mscae/Two_User_Icon.svg;" vertex="1" parent="1">
          <mxGeometry x="365.5" y="409.75" width="50" height="50" as="geometry" />
        </mxCell>
        <mxCell id="0RKBG-0MUI1VxRcxzeNU-8" value="" style="image;sketch=0;aspect=fixed;html=1;points=[];align=center;fontSize=12;image=img/lib/mscae/Network_watcher.svg;" vertex="1" parent="1">
          <mxGeometry x="1225" y="132" width="50" height="50" as="geometry" />
        </mxCell>
        <mxCell id="0RKBG-0MUI1VxRcxzeNU-12" value="" style="image;sketch=0;aspect=fixed;html=1;points=[];align=center;fontSize=12;image=img/lib/mscae/VM_Scale_Set.svg;" vertex="1" parent="1">
          <mxGeometry x="970" y="340" width="50" height="50" as="geometry" />
        </mxCell>
        <mxCell id="0RKBG-0MUI1VxRcxzeNU-13" value="" style="image;sketch=0;aspect=fixed;html=1;points=[];align=center;fontSize=12;image=img/lib/mscae/Database_General.svg;" vertex="1" parent="1">
          <mxGeometry x="1590" y="340" width="38" height="50" as="geometry" />
        </mxCell>
        <mxCell id="0RKBG-0MUI1VxRcxzeNU-14" value="" style="image;sketch=0;aspect=fixed;html=1;points=[];align=center;fontSize=12;image=img/lib/mscae/Database_General.svg;" vertex="1" parent="1">
          <mxGeometry x="1590" y="500" width="38" height="50" as="geometry" />
        </mxCell>
        <mxCell id="0RKBG-0MUI1VxRcxzeNU-15" value="" style="image;sketch=0;aspect=fixed;html=1;points=[];align=center;fontSize=12;image=img/lib/mscae/VM_Scale_Set.svg;" vertex="1" parent="1">
          <mxGeometry x="1210" y="530" width="50" height="50" as="geometry" />
        </mxCell>
        <mxCell id="0RKBG-0MUI1VxRcxzeNU-17" value="" style="image;sketch=0;aspect=fixed;html=1;points=[];align=center;fontSize=12;image=img/lib/mscae/Storage_sync_service.svg;" vertex="1" parent="1">
          <mxGeometry x="1190" y="310" width="110" height="110" as="geometry" />
        </mxCell>
        <mxCell id="0RKBG-0MUI1VxRcxzeNU-20" value="" style="image;sketch=0;aspect=fixed;html=1;points=[];align=center;fontSize=12;image=img/lib/mscae/VM_Scale_Set.svg;" vertex="1" parent="1">
          <mxGeometry x="1400" y="340" width="50" height="50" as="geometry" />
        </mxCell>
        <mxCell id="0RKBG-0MUI1VxRcxzeNU-24" value="MY DREAM PATTERN" style="text;html=1;align=center;verticalAlign=middle;whiteSpace=wrap;rounded=0;" vertex="1" parent="1">
          <mxGeometry x="779" y="-110" width="220" height="80" as="geometry" />
        </mxCell>
        <mxCell id="0RKBG-0MUI1VxRcxzeNU-25" value="" style="endArrow=classic;startArrow=classic;html=1;rounded=0;" edge="1" parent="1">
          <mxGeometry width="50" height="50" relative="1" as="geometry">
            <mxPoint x="1050" y="360" as="sourcePoint" />
            <mxPoint x="1160" y="360" as="targetPoint" />
          </mxGeometry>
        </mxCell>
        <mxCell id="0RKBG-0MUI1VxRcxzeNU-26" value="" style="endArrow=classic;startArrow=classic;html=1;rounded=0;" edge="1" parent="1">
          <mxGeometry width="50" height="50" relative="1" as="geometry">
            <mxPoint x="1310" y="364.58000000000004" as="sourcePoint" />
            <mxPoint x="1390" y="364.29" as="targetPoint" />
          </mxGeometry>
        </mxCell>
        <mxCell id="0RKBG-0MUI1VxRcxzeNU-27" value="" style="endArrow=classic;html=1;rounded=0;" edge="1" parent="1">
          <mxGeometry width="50" height="50" relative="1" as="geometry">
            <mxPoint x="1470" y="370" as="sourcePoint" />
            <mxPoint x="1580" y="370" as="targetPoint" />
          </mxGeometry>
        </mxCell>
        <mxCell id="0RKBG-0MUI1VxRcxzeNU-29" value="DB Replicate Tech" style="text;html=1;align=center;verticalAlign=middle;whiteSpace=wrap;rounded=0;" vertex="1" parent="1">
          <mxGeometry x="1670" y="440" width="140" height="30" as="geometry" />
        </mxCell>
        <mxCell id="0RKBG-0MUI1VxRcxzeNU-32" value="&lt;div&gt;restapi&lt;/div&gt;producer order" style="text;html=1;align=center;verticalAlign=middle;whiteSpace=wrap;rounded=0;" vertex="1" parent="1">
          <mxGeometry x="885" y="260" width="220" height="80" as="geometry" />
        </mxCell>
        <mxCell id="0RKBG-0MUI1VxRcxzeNU-33" value="nessage partition order" style="text;html=1;align=center;verticalAlign=middle;whiteSpace=wrap;rounded=0;" vertex="1" parent="1">
          <mxGeometry x="1150" y="240" width="220" height="80" as="geometry" />
        </mxCell>
        <mxCell id="0RKBG-0MUI1VxRcxzeNU-34" value="listner order" style="text;html=1;align=center;verticalAlign=middle;whiteSpace=wrap;rounded=0;" vertex="1" parent="1">
          <mxGeometry x="1315" y="260" width="220" height="80" as="geometry" />
        </mxCell>
        <mxCell id="0RKBG-0MUI1VxRcxzeNU-35" value="database write" style="text;html=1;align=center;verticalAlign=middle;whiteSpace=wrap;rounded=0;" vertex="1" parent="1">
          <mxGeometry x="1510" y="260" width="220" height="80" as="geometry" />
        </mxCell>
        <mxCell id="0RKBG-0MUI1VxRcxzeNU-36" value="database read" style="text;html=1;align=center;verticalAlign=middle;whiteSpace=wrap;rounded=0;" vertex="1" parent="1">
          <mxGeometry x="1580" y="580" width="220" height="80" as="geometry" />
        </mxCell>
        <mxCell id="0RKBG-0MUI1VxRcxzeNU-37" value="Discoery" style="text;html=1;align=center;verticalAlign=middle;whiteSpace=wrap;rounded=0;" vertex="1" parent="1">
          <mxGeometry x="1150" y="60" width="220" height="80" as="geometry" />
        </mxCell>
        <mxCell id="0RKBG-0MUI1VxRcxzeNU-38" value="" style="endArrow=classic;html=1;rounded=0;" edge="1" parent="1">
          <mxGeometry width="50" height="50" relative="1" as="geometry">
            <mxPoint x="1628" y="410" as="sourcePoint" />
            <mxPoint x="1628" y="480" as="targetPoint" />
          </mxGeometry>
        </mxCell>
        <mxCell id="0RKBG-0MUI1VxRcxzeNU-39" value="" style="image;sketch=0;aspect=fixed;html=1;points=[];align=center;fontSize=12;image=img/lib/mscae/Database_General.svg;" vertex="1" parent="1">
          <mxGeometry x="1590" y="580" width="38" height="50" as="geometry" />
        </mxCell>
        <mxCell id="0RKBG-0MUI1VxRcxzeNU-40" value="" style="image;sketch=0;aspect=fixed;html=1;points=[];align=center;fontSize=12;image=img/lib/mscae/Database_General.svg;" vertex="1" parent="1">
          <mxGeometry x="1650" y="530" width="38" height="50" as="geometry" />
        </mxCell>
        <mxCell id="0RKBG-0MUI1VxRcxzeNU-41" value="" style="endArrow=classic;startArrow=classic;html=1;rounded=0;" edge="1" parent="1">
          <mxGeometry width="50" height="50" relative="1" as="geometry">
            <mxPoint x="1290" y="554.58" as="sourcePoint" />
            <mxPoint x="1570" y="554" as="targetPoint" />
          </mxGeometry>
        </mxCell>
        <mxCell id="0RKBG-0MUI1VxRcxzeNU-42" value="" style="endArrow=classic;startArrow=classic;html=1;rounded=0;" edge="1" parent="1">
          <mxGeometry width="50" height="50" relative="1" as="geometry">
            <mxPoint x="970" y="554" as="sourcePoint" />
            <mxPoint x="1175" y="554.29" as="targetPoint" />
          </mxGeometry>
        </mxCell>
        <mxCell id="0RKBG-0MUI1VxRcxzeNU-43" value="Authorize provider" style="text;html=1;align=center;verticalAlign=middle;whiteSpace=wrap;rounded=0;" vertex="1" parent="1">
          <mxGeometry x="140" y="149.75" width="220" height="80" as="geometry" />
        </mxCell>
        <mxCell id="0RKBG-0MUI1VxRcxzeNU-44" value="Authen" style="text;html=1;align=center;verticalAlign=middle;whiteSpace=wrap;rounded=0;" vertex="1" parent="1">
          <mxGeometry x="390" y="170" width="220" height="80" as="geometry" />
        </mxCell>
        <mxCell id="0RKBG-0MUI1VxRcxzeNU-45" value="Cache" style="text;html=1;align=center;verticalAlign=middle;whiteSpace=wrap;rounded=0;" vertex="1" parent="1">
          <mxGeometry x="660" y="20" width="220" height="80" as="geometry" />
        </mxCell>
        <mxCell id="0RKBG-0MUI1VxRcxzeNU-46" value="Gateway" style="text;html=1;align=center;verticalAlign=middle;whiteSpace=wrap;rounded=0;fontColor=#CC0000;" vertex="1" parent="1">
          <mxGeometry x="634.5" y="470" width="220" height="80" as="geometry" />
        </mxCell>
        <mxCell id="0RKBG-0MUI1VxRcxzeNU-47" value="Front End" style="text;html=1;align=center;verticalAlign=middle;whiteSpace=wrap;rounded=0;" vertex="1" parent="1">
          <mxGeometry x="345.5" y="495" width="60" height="30" as="geometry" />
        </mxCell>
        <mxCell id="0RKBG-0MUI1VxRcxzeNU-48" value="listner order" style="text;html=1;align=center;verticalAlign=middle;whiteSpace=wrap;rounded=0;" vertex="1" parent="1">
          <mxGeometry x="1135" y="570" width="220" height="80" as="geometry" />
        </mxCell>
        <mxCell id="0RKBG-0MUI1VxRcxzeNU-49" value="&lt;div&gt;restapi&lt;/div&gt;" style="text;html=1;align=center;verticalAlign=middle;whiteSpace=wrap;rounded=0;" vertex="1" parent="1">
          <mxGeometry x="1125" y="460" width="220" height="80" as="geometry" />
        </mxCell>
        <mxCell id="0RKBG-0MUI1VxRcxzeNU-51" value="" style="endArrow=classic;startArrow=classic;html=1;rounded=0;" edge="1" parent="1">
          <mxGeometry width="50" height="50" relative="1" as="geometry">
            <mxPoint x="456.5" y="439.75" as="sourcePoint" />
            <mxPoint x="617.5" y="439.75" as="targetPoint" />
          </mxGeometry>
        </mxCell>
        <mxCell id="0RKBG-0MUI1VxRcxzeNU-52" value="socket" style="text;html=1;align=center;verticalAlign=middle;whiteSpace=wrap;rounded=0;" vertex="1" parent="1">
          <mxGeometry x="507.5" y="399.75" width="60" height="30" as="geometry" />
        </mxCell>
        <mxCell id="0RKBG-0MUI1VxRcxzeNU-53" value="" style="endArrow=classic;startArrow=classic;html=1;rounded=0;" edge="1" parent="1">
          <mxGeometry width="50" height="50" relative="1" as="geometry">
            <mxPoint x="250.5" y="339.75" as="sourcePoint" />
            <mxPoint x="325.5" y="409.75" as="targetPoint" />
          </mxGeometry>
        </mxCell>
        <mxCell id="0RKBG-0MUI1VxRcxzeNU-54" value="" style="endArrow=classic;startArrow=classic;html=1;rounded=0;" edge="1" parent="1">
          <mxGeometry width="50" height="50" relative="1" as="geometry">
            <mxPoint x="505.5" y="309.75" as="sourcePoint" />
            <mxPoint x="427" y="399.75" as="targetPoint" />
          </mxGeometry>
        </mxCell>
        <mxCell id="0RKBG-0MUI1VxRcxzeNU-55" value="" style="endArrow=classic;startArrow=classic;html=1;rounded=0;" edge="1" parent="1">
          <mxGeometry width="50" height="50" relative="1" as="geometry">
            <mxPoint x="650" y="160" as="sourcePoint" />
            <mxPoint x="590" y="218" as="targetPoint" />
          </mxGeometry>
        </mxCell>
        <mxCell id="0RKBG-0MUI1VxRcxzeNU-56" value="" style="endArrow=classic;startArrow=classic;html=1;rounded=0;entryX=0.453;entryY=-0.088;entryDx=0;entryDy=0;entryPerimeter=0;" edge="1" parent="1">
          <mxGeometry width="50" height="50" relative="1" as="geometry">
            <mxPoint x="774.1800000000001" y="196.52" as="sourcePoint" />
            <mxPoint x="774.1700000000003" y="347.4800000000005" as="targetPoint" />
          </mxGeometry>
        </mxCell>
        <mxCell id="0RKBG-0MUI1VxRcxzeNU-57" value="" style="image;sketch=0;aspect=fixed;html=1;points=[];align=center;fontSize=12;image=img/lib/mscae/Data_Catalog.svg;" vertex="1" parent="1">
          <mxGeometry x="1323" y="132" width="47" height="50" as="geometry" />
        </mxCell>
        <mxCell id="0RKBG-0MUI1VxRcxzeNU-58" value="" style="image;sketch=0;aspect=fixed;html=1;points=[];align=center;fontSize=12;image=img/lib/mscae/Resource_Graph_Explorer.svg;" vertex="1" parent="1">
          <mxGeometry x="1105" y="130" width="49" height="50" as="geometry" />
        </mxCell>
        <mxCell id="0RKBG-0MUI1VxRcxzeNU-59" value="Logging" style="text;html=1;align=center;verticalAlign=middle;whiteSpace=wrap;rounded=0;" vertex="1" parent="1">
          <mxGeometry x="1236.5" y="60" width="220" height="80" as="geometry" />
        </mxCell>
        <mxCell id="0RKBG-0MUI1VxRcxzeNU-60" value="Tracing" style="text;html=1;align=center;verticalAlign=middle;whiteSpace=wrap;rounded=0;" vertex="1" parent="1">
          <mxGeometry x="1019.5" y="60" width="220" height="80" as="geometry" />
        </mxCell>
        <mxCell id="0RKBG-0MUI1VxRcxzeNU-61" value="" style="image;sketch=0;aspect=fixed;html=1;points=[];align=center;fontSize=12;image=img/lib/mscae/Monitor.svg;" vertex="1" parent="1">
          <mxGeometry x="1235" y="-60" width="50" height="50" as="geometry" />
        </mxCell>
        <mxCell id="0RKBG-0MUI1VxRcxzeNU-63" value="" style="image;sketch=0;aspect=fixed;html=1;points=[];align=center;fontSize=12;image=img/lib/mscae/Developer_Tools.svg;" vertex="1" parent="1">
          <mxGeometry x="1330" y="-60" width="47" height="50" as="geometry" />
        </mxCell>
        <mxCell id="0RKBG-0MUI1VxRcxzeNU-64" value="" style="image;sketch=0;aspect=fixed;html=1;points=[];align=center;fontSize=12;image=img/lib/mscae/Support_2.svg;" vertex="1" parent="1">
          <mxGeometry x="1291" y="-170" width="32" height="50" as="geometry" />
        </mxCell>
        <mxCell id="0RKBG-0MUI1VxRcxzeNU-65" value="Monitoring" style="text;html=1;align=center;verticalAlign=middle;whiteSpace=wrap;rounded=0;" vertex="1" parent="1">
          <mxGeometry x="1090" y="-120" width="220" height="80" as="geometry" />
        </mxCell>
        <mxCell id="0RKBG-0MUI1VxRcxzeNU-66" value="Configuring" style="text;html=1;align=center;verticalAlign=middle;whiteSpace=wrap;rounded=0;" vertex="1" parent="1">
          <mxGeometry x="1243.5" y="-120" width="220" height="80" as="geometry" />
        </mxCell>
        <mxCell id="0RKBG-0MUI1VxRcxzeNU-67" value="" style="endArrow=classic;startArrow=classic;html=1;rounded=0;" edge="1" parent="1">
          <mxGeometry width="50" height="50" relative="1" as="geometry">
            <mxPoint x="1070" y="190" as="sourcePoint" />
            <mxPoint x="810" y="360" as="targetPoint" />
          </mxGeometry>
        </mxCell>
        <mxCell id="0RKBG-0MUI1VxRcxzeNU-68" value="" style="aspect=fixed;sketch=0;html=1;dashed=0;whitespace=wrap;fillColor=#2875E2;strokeColor=#ffffff;points=[[0.005,0.63,0],[0.1,0.2,0],[0.9,0.2,0],[0.5,0,0],[0.995,0.63,0],[0.72,0.99,0],[0.5,1,0],[0.28,0.99,0]];shape=mxgraph.kubernetes.icon2;prIcon=deploy" vertex="1" parent="1">
          <mxGeometry x="1457" y="-57" width="50" height="48" as="geometry" />
        </mxCell>
        <mxCell id="0RKBG-0MUI1VxRcxzeNU-69" value="Deploying" style="text;html=1;align=center;verticalAlign=middle;whiteSpace=wrap;rounded=0;" vertex="1" parent="1">
          <mxGeometry x="1400" y="-120" width="220" height="80" as="geometry" />
        </mxCell>
        <mxCell id="0RKBG-0MUI1VxRcxzeNU-75" value="" style="image;sketch=0;aspect=fixed;html=1;points=[];align=center;fontSize=12;image=img/lib/mscae/Support_2.svg;" vertex="1" parent="1">
          <mxGeometry x="1520" y="-170" width="33" height="51.56" as="geometry" />
        </mxCell>
        <mxCell id="0RKBG-0MUI1VxRcxzeNU-76" value="Infra" style="text;html=1;align=center;verticalAlign=middle;whiteSpace=wrap;rounded=0;" vertex="1" parent="1">
          <mxGeometry x="1197" y="-240" width="220" height="80" as="geometry" />
        </mxCell>
        <mxCell id="0RKBG-0MUI1VxRcxzeNU-77" value="Dev" style="text;html=1;align=center;verticalAlign=middle;whiteSpace=wrap;rounded=0;" vertex="1" parent="1">
          <mxGeometry x="1440" y="-240" width="220" height="80" as="geometry" />
        </mxCell>
      </root>
    </mxGraphModel>
  </diagram>
  <diagram id="ogk5ggf0uygIgYO0hD3W" name="Apply Stack">
    <mxGraphModel dx="1354" dy="769" grid="1" gridSize="10" guides="1" tooltips="1" connect="1" arrows="1" fold="1" page="1" pageScale="1" pageWidth="850" pageHeight="1100" math="0" shadow="0">
      <root>
        <mxCell id="0" />
        <mxCell id="1" parent="0" />
      </root>
    </mxGraphModel>
  </diagram>
</mxfile>
